<?xml version="1.0" encoding="utf-8"?>
<!DOCTYPE svg PUBLIC "-//W3C//DTD SVG 20010904//EN" "http://www.w3.org/TR/2001/REC-SVG-20010904/DTD/svg10.dtd">
<svg xmlns="http://www.w3.org/2000/svg" xml:space="preserve" xmlns:xlink="http://www.w3.org/1999/xlink" width="990" height="990" viewBox="0 0 990 990">
<defs>
<mask id="qrmask"><g fill="#ffffff">
<g transform="translate(220,44) scale(3.6666666666667)"><rect width="6" height="6"/></g>
<g transform="translate(286,44) scale(3.6666666666667)"><rect width="6" height="6"/></g>
<g transform="translate(352,44) scale(3.6666666666667)"><rect width="6" height="6"/></g>
<g transform="translate(396,44) scale(3.6666666666667)"><rect width="6" height="6"/></g>
<g transform="translate(440,44) scale(3.6666666666667)"><rect width="6" height="6"/></g>
<g transform="translate(462,44) scale(3.6666666666667)"><rect width="6" height="6"/></g>
<g transform="translate(506,44) scale(3.6666666666667)"><rect width="6" height="6"/></g>
<g transform="translate(704,44) scale(3.6666666666667)"><rect width="6" height="6"/></g>
<g transform="translate(726,44) scale(3.6666666666667)"><rect width="6" height="6"/></g>
<g transform="translate(748,44) scale(3.6666666666667)"><rect width="6" height="6"/></g>
<g transform="translate(220,66) scale(3.6666666666667)"><rect width="6" height="6"/></g>
<g transform="translate(264,66) scale(3.6666666666667)"><rect width="6" height="6"/></g>
<g transform="translate(286,66) scale(3.6666666666667)"><rect width="6" height="6"/></g>
<g transform="translate(308,66) scale(3.6666666666667)"><rect width="6" height="6"/></g>
<g transform="translate(352,66) scale(3.6666666666667)"><rect width="6" height="6"/></g>
<g transform="translate(440,66) scale(3.6666666666667)"><rect width="6" height="6"/></g>
<g transform="translate(484,66) scale(3.6666666666667)"><rect width="6" height="6"/></g>
<g transform="translate(506,66) scale(3.6666666666667)"><rect width="6" height="6"/></g>
<g transform="translate(528,66) scale(3.6666666666667)"><rect width="6" height="6"/></g>
<g transform="translate(572,66) scale(3.6666666666667)"><rect width="6" height="6"/></g>
<g transform="translate(638,66) scale(3.6666666666667)"><rect width="6" height="6"/></g>
<g transform="translate(660,66) scale(3.6666666666667)"><rect width="6" height="6"/></g>
<g transform="translate(704,66) scale(3.6666666666667)"><rect width="6" height="6"/></g>
<g transform="translate(748,66) scale(3.6666666666667)"><rect width="6" height="6"/></g>
<g transform="translate(220,88) scale(3.6666666666667)"><rect width="6" height="6"/></g>
<g transform="translate(242,88) scale(3.6666666666667)"><rect width="6" height="6"/></g>
<g transform="translate(264,88) scale(3.6666666666667)"><rect width="6" height="6"/></g>
<g transform="translate(286,88) scale(3.6666666666667)"><rect width="6" height="6"/></g>
<g transform="translate(330,88) scale(3.6666666666667)"><rect width="6" height="6"/></g>
<g transform="translate(396,88) scale(3.6666666666667)"><rect width="6" height="6"/></g>
<g transform="translate(418,88) scale(3.6666666666667)"><rect width="6" height="6"/></g>
<g transform="translate(462,88) scale(3.6666666666667)"><rect width="6" height="6"/></g>
<g transform="translate(528,88) scale(3.6666666666667)"><rect width="6" height="6"/></g>
<g transform="translate(616,88) scale(3.6666666666667)"><rect width="6" height="6"/></g>
<g transform="translate(638,88) scale(3.6666666666667)"><rect width="6" height="6"/></g>
<g transform="translate(286,110) scale(3.6666666666667)"><rect width="6" height="6"/></g>
<g transform="translate(330,110) scale(3.6666666666667)"><rect width="6" height="6"/></g>
<g transform="translate(374,110) scale(3.6666666666667)"><rect width="6" height="6"/></g>
<g transform="translate(418,110) scale(3.6666666666667)"><rect width="6" height="6"/></g>
<g transform="translate(440,110) scale(3.6666666666667)"><rect width="6" height="6"/></g>
<g transform="translate(462,110) scale(3.6666666666667)"><rect width="6" height="6"/></g>
<g transform="translate(484,110) scale(3.6666666666667)"><rect width="6" height="6"/></g>
<g transform="translate(550,110) scale(3.6666666666667)"><rect width="6" height="6"/></g>
<g transform="translate(638,110) scale(3.6666666666667)"><rect width="6" height="6"/></g>
<g transform="translate(682,110) scale(3.6666666666667)"><rect width="6" height="6"/></g>
<g transform="translate(704,110) scale(3.6666666666667)"><rect width="6" height="6"/></g>
<g transform="translate(242,132) scale(3.6666666666667)"><rect width="6" height="6"/></g>
<g transform="translate(374,132) scale(3.6666666666667)"><rect width="6" height="6"/></g>
<g transform="translate(396,132) scale(3.6666666666667)"><rect width="6" height="6"/></g>
<g transform="translate(418,132) scale(3.6666666666667)"><rect width="6" height="6"/></g>
<g transform="translate(506,132) scale(3.6666666666667)"><rect width="6" height="6"/></g>
<g transform="translate(528,132) scale(3.6666666666667)"><rect width="6" height="6"/></g>
<g transform="translate(550,132) scale(3.6666666666667)"><rect width="6" height="6"/></g>
<g transform="translate(616,132) scale(3.6666666666667)"><rect width="6" height="6"/></g>
<g transform="translate(660,132) scale(3.6666666666667)"><rect width="6" height="6"/></g>
<g transform="translate(704,132) scale(3.6666666666667)"><rect width="6" height="6"/></g>
<g transform="translate(726,132) scale(3.6666666666667)"><rect width="6" height="6"/></g>
<g transform="translate(220,154) scale(3.6666666666667)"><rect width="6" height="6"/></g>
<g transform="translate(242,154) scale(3.6666666666667)"><rect width="6" height="6"/></g>
<g transform="translate(286,154) scale(3.6666666666667)"><rect width="6" height="6"/></g>
<g transform="translate(308,154) scale(3.6666666666667)"><rect width="6" height="6"/></g>
<g transform="translate(330,154) scale(3.6666666666667)"><rect width="6" height="6"/></g>
<g transform="translate(374,154) scale(3.6666666666667)"><rect width="6" height="6"/></g>
<g transform="translate(440,154) scale(3.6666666666667)"><rect width="6" height="6"/></g>
<g transform="translate(572,154) scale(3.6666666666667)"><rect width="6" height="6"/></g>
<g transform="translate(638,154) scale(3.6666666666667)"><rect width="6" height="6"/></g>
<g transform="translate(660,154) scale(3.6666666666667)"><rect width="6" height="6"/></g>
<g transform="translate(682,154) scale(3.6666666666667)"><rect width="6" height="6"/></g>
<g transform="translate(704,154) scale(3.6666666666667)"><rect width="6" height="6"/></g>
<g transform="translate(748,154) scale(3.6666666666667)"><rect width="6" height="6"/></g>
<g transform="translate(220,176) scale(3.6666666666667)"><rect width="6" height="6"/></g>
<g transform="translate(264,176) scale(3.6666666666667)"><rect width="6" height="6"/></g>
<g transform="translate(308,176) scale(3.6666666666667)"><rect width="6" height="6"/></g>
<g transform="translate(352,176) scale(3.6666666666667)"><rect width="6" height="6"/></g>
<g transform="translate(396,176) scale(3.6666666666667)"><rect width="6" height="6"/></g>
<g transform="translate(440,176) scale(3.6666666666667)"><rect width="6" height="6"/></g>
<g transform="translate(484,176) scale(3.6666666666667)"><rect width="6" height="6"/></g>
<g transform="translate(528,176) scale(3.6666666666667)"><rect width="6" height="6"/></g>
<g transform="translate(572,176) scale(3.6666666666667)"><rect width="6" height="6"/></g>
<g transform="translate(616,176) scale(3.6666666666667)"><rect width="6" height="6"/></g>
<g transform="translate(660,176) scale(3.6666666666667)"><rect width="6" height="6"/></g>
<g transform="translate(704,176) scale(3.6666666666667)"><rect width="6" height="6"/></g>
<g transform="translate(748,176) scale(3.6666666666667)"><rect width="6" height="6"/></g>
<g transform="translate(220,198) scale(3.6666666666667)"><rect width="6" height="6"/></g>
<g transform="translate(242,198) scale(3.6666666666667)"><rect width="6" height="6"/></g>
<g transform="translate(264,198) scale(3.6666666666667)"><rect width="6" height="6"/></g>
<g transform="translate(308,198) scale(3.6666666666667)"><rect width="6" height="6"/></g>
<g transform="translate(330,198) scale(3.6666666666667)"><rect width="6" height="6"/></g>
<g transform="translate(418,198) scale(3.6666666666667)"><rect width="6" height="6"/></g>
<g transform="translate(440,198) scale(3.6666666666667)"><rect width="6" height="6"/></g>
<g transform="translate(506,198) scale(3.6666666666667)"><rect width="6" height="6"/></g>
<g transform="translate(528,198) scale(3.6666666666667)"><rect width="6" height="6"/></g>
<g transform="translate(572,198) scale(3.6666666666667)"><rect width="6" height="6"/></g>
<g transform="translate(616,198) scale(3.6666666666667)"><rect width="6" height="6"/></g>
<g transform="translate(704,198) scale(3.6666666666667)"><rect width="6" height="6"/></g>
<g transform="translate(748,198) scale(3.6666666666667)"><rect width="6" height="6"/></g>
<g transform="translate(88,220) scale(3.6666666666667)"><rect width="6" height="6"/></g>
<g transform="translate(110,220) scale(3.6666666666667)"><rect width="6" height="6"/></g>
<g transform="translate(132,220) scale(3.6666666666667)"><rect width="6" height="6"/></g>
<g transform="translate(176,220) scale(3.6666666666667)"><rect width="6" height="6"/></g>
<g transform="translate(220,220) scale(3.6666666666667)"><rect width="6" height="6"/></g>
<g transform="translate(264,220) scale(3.6666666666667)"><rect width="6" height="6"/></g>
<g transform="translate(286,220) scale(3.6666666666667)"><rect width="6" height="6"/></g>
<g transform="translate(308,220) scale(3.6666666666667)"><rect width="6" height="6"/></g>
<g transform="translate(374,220) scale(3.6666666666667)"><rect width="6" height="6"/></g>
<g transform="translate(396,220) scale(3.6666666666667)"><rect width="6" height="6"/></g>
<g transform="translate(462,220) scale(3.6666666666667)"><rect width="6" height="6"/></g>
<g transform="translate(484,220) scale(3.6666666666667)"><rect width="6" height="6"/></g>
<g transform="translate(550,220) scale(3.6666666666667)"><rect width="6" height="6"/></g>
<g transform="translate(572,220) scale(3.6666666666667)"><rect width="6" height="6"/></g>
<g transform="translate(594,220) scale(3.6666666666667)"><rect width="6" height="6"/></g>
<g transform="translate(616,220) scale(3.6666666666667)"><rect width="6" height="6"/></g>
<g transform="translate(682,220) scale(3.6666666666667)"><rect width="6" height="6"/></g>
<g transform="translate(726,220) scale(3.6666666666667)"><rect width="6" height="6"/></g>
<g transform="translate(770,220) scale(3.6666666666667)"><rect width="6" height="6"/></g>
<g transform="translate(792,220) scale(3.6666666666667)"><rect width="6" height="6"/></g>
<g transform="translate(814,220) scale(3.6666666666667)"><rect width="6" height="6"/></g>
<g transform="translate(880,220) scale(3.6666666666667)"><rect width="6" height="6"/></g>
<g transform="translate(902,220) scale(3.6666666666667)"><rect width="6" height="6"/></g>
<g transform="translate(924,220) scale(3.6666666666667)"><rect width="6" height="6"/></g>
<g transform="translate(44,242) scale(3.6666666666667)"><rect width="6" height="6"/></g>
<g transform="translate(66,242) scale(3.6666666666667)"><rect width="6" height="6"/></g>
<g transform="translate(154,242) scale(3.6666666666667)"><rect width="6" height="6"/></g>
<g transform="translate(198,242) scale(3.6666666666667)"><rect width="6" height="6"/></g>
<g transform="translate(220,242) scale(3.6666666666667)"><rect width="6" height="6"/></g>
<g transform="translate(242,242) scale(3.6666666666667)"><rect width="6" height="6"/></g>
<g transform="translate(264,242) scale(3.6666666666667)"><rect width="6" height="6"/></g>
<g transform="translate(308,242) scale(3.6666666666667)"><rect width="6" height="6"/></g>
<g transform="translate(396,242) scale(3.6666666666667)"><rect width="6" height="6"/></g>
<g transform="translate(462,242) scale(3.6666666666667)"><rect width="6" height="6"/></g>
<g transform="translate(506,242) scale(3.6666666666667)"><rect width="6" height="6"/></g>
<g transform="translate(550,242) scale(3.6666666666667)"><rect width="6" height="6"/></g>
<g transform="translate(572,242) scale(3.6666666666667)"><rect width="6" height="6"/></g>
<g transform="translate(616,242) scale(3.6666666666667)"><rect width="6" height="6"/></g>
<g transform="translate(660,242) scale(3.6666666666667)"><rect width="6" height="6"/></g>
<g transform="translate(682,242) scale(3.6666666666667)"><rect width="6" height="6"/></g>
<g transform="translate(726,242) scale(3.6666666666667)"><rect width="6" height="6"/></g>
<g transform="translate(748,242) scale(3.6666666666667)"><rect width="6" height="6"/></g>
<g transform="translate(770,242) scale(3.6666666666667)"><rect width="6" height="6"/></g>
<g transform="translate(792,242) scale(3.6666666666667)"><rect width="6" height="6"/></g>
<g transform="translate(814,242) scale(3.6666666666667)"><rect width="6" height="6"/></g>
<g transform="translate(836,242) scale(3.6666666666667)"><rect width="6" height="6"/></g>
<g transform="translate(880,242) scale(3.6666666666667)"><rect width="6" height="6"/></g>
<g transform="translate(924,242) scale(3.6666666666667)"><rect width="6" height="6"/></g>
<g transform="translate(154,264) scale(3.6666666666667)"><rect width="6" height="6"/></g>
<g transform="translate(176,264) scale(3.6666666666667)"><rect width="6" height="6"/></g>
<g transform="translate(242,264) scale(3.6666666666667)"><rect width="6" height="6"/></g>
<g transform="translate(264,264) scale(3.6666666666667)"><rect width="6" height="6"/></g>
<g transform="translate(308,264) scale(3.6666666666667)"><rect width="6" height="6"/></g>
<g transform="translate(330,264) scale(3.6666666666667)"><rect width="6" height="6"/></g>
<g transform="translate(374,264) scale(3.6666666666667)"><rect width="6" height="6"/></g>
<g transform="translate(440,264) scale(3.6666666666667)"><rect width="6" height="6"/></g>
<g transform="translate(484,264) scale(3.6666666666667)"><rect width="6" height="6"/></g>
<g transform="translate(506,264) scale(3.6666666666667)"><rect width="6" height="6"/></g>
<g transform="translate(572,264) scale(3.6666666666667)"><rect width="6" height="6"/></g>
<g transform="translate(638,264) scale(3.6666666666667)"><rect width="6" height="6"/></g>
<g transform="translate(660,264) scale(3.6666666666667)"><rect width="6" height="6"/></g>
<g transform="translate(682,264) scale(3.6666666666667)"><rect width="6" height="6"/></g>
<g transform="translate(748,264) scale(3.6666666666667)"><rect width="6" height="6"/></g>
<g transform="translate(770,264) scale(3.6666666666667)"><rect width="6" height="6"/></g>
<g transform="translate(814,264) scale(3.6666666666667)"><rect width="6" height="6"/></g>
<g transform="translate(902,264) scale(3.6666666666667)"><rect width="6" height="6"/></g>
<g transform="translate(132,286) scale(3.6666666666667)"><rect width="6" height="6"/></g>
<g transform="translate(220,286) scale(3.6666666666667)"><rect width="6" height="6"/></g>
<g transform="translate(242,286) scale(3.6666666666667)"><rect width="6" height="6"/></g>
<g transform="translate(264,286) scale(3.6666666666667)"><rect width="6" height="6"/></g>
<g transform="translate(286,286) scale(3.6666666666667)"><rect width="6" height="6"/></g>
<g transform="translate(308,286) scale(3.6666666666667)"><rect width="6" height="6"/></g>
<g transform="translate(330,286) scale(3.6666666666667)"><rect width="6" height="6"/></g>
<g transform="translate(352,286) scale(3.6666666666667)"><rect width="6" height="6"/></g>
<g transform="translate(462,286) scale(3.6666666666667)"><rect width="6" height="6"/></g>
<g transform="translate(484,286) scale(3.6666666666667)"><rect width="6" height="6"/></g>
<g transform="translate(506,286) scale(3.6666666666667)"><rect width="6" height="6"/></g>
<g transform="translate(594,286) scale(3.6666666666667)"><rect width="6" height="6"/></g>
<g transform="translate(616,286) scale(3.6666666666667)"><rect width="6" height="6"/></g>
<g transform="translate(638,286) scale(3.6666666666667)"><rect width="6" height="6"/></g>
<g transform="translate(726,286) scale(3.6666666666667)"><rect width="6" height="6"/></g>
<g transform="translate(748,286) scale(3.6666666666667)"><rect width="6" height="6"/></g>
<g transform="translate(770,286) scale(3.6666666666667)"><rect width="6" height="6"/></g>
<g transform="translate(792,286) scale(3.6666666666667)"><rect width="6" height="6"/></g>
<g transform="translate(814,286) scale(3.6666666666667)"><rect width="6" height="6"/></g>
<g transform="translate(858,286) scale(3.6666666666667)"><rect width="6" height="6"/></g>
<g transform="translate(902,286) scale(3.6666666666667)"><rect width="6" height="6"/></g>
<g transform="translate(66,308) scale(3.6666666666667)"><rect width="6" height="6"/></g>
<g transform="translate(88,308) scale(3.6666666666667)"><rect width="6" height="6"/></g>
<g transform="translate(132,308) scale(3.6666666666667)"><rect width="6" height="6"/></g>
<g transform="translate(154,308) scale(3.6666666666667)"><rect width="6" height="6"/></g>
<g transform="translate(176,308) scale(3.6666666666667)"><rect width="6" height="6"/></g>
<g transform="translate(242,308) scale(3.6666666666667)"><rect width="6" height="6"/></g>
<g transform="translate(330,308) scale(3.6666666666667)"><rect width="6" height="6"/></g>
<g transform="translate(396,308) scale(3.6666666666667)"><rect width="6" height="6"/></g>
<g transform="translate(418,308) scale(3.6666666666667)"><rect width="6" height="6"/></g>
<g transform="translate(462,308) scale(3.6666666666667)"><rect width="6" height="6"/></g>
<g transform="translate(484,308) scale(3.6666666666667)"><rect width="6" height="6"/></g>
<g transform="translate(528,308) scale(3.6666666666667)"><rect width="6" height="6"/></g>
<g transform="translate(682,308) scale(3.6666666666667)"><rect width="6" height="6"/></g>
<g transform="translate(726,308) scale(3.6666666666667)"><rect width="6" height="6"/></g>
<g transform="translate(770,308) scale(3.6666666666667)"><rect width="6" height="6"/></g>
<g transform="translate(858,308) scale(3.6666666666667)"><rect width="6" height="6"/></g>
<g transform="translate(880,308) scale(3.6666666666667)"><rect width="6" height="6"/></g>
<g transform="translate(902,308) scale(3.6666666666667)"><rect width="6" height="6"/></g>
<g transform="translate(44,330) scale(3.6666666666667)"><rect width="6" height="6"/></g>
<g transform="translate(66,330) scale(3.6666666666667)"><rect width="6" height="6"/></g>
<g transform="translate(132,330) scale(3.6666666666667)"><rect width="6" height="6"/></g>
<g transform="translate(198,330) scale(3.6666666666667)"><rect width="6" height="6"/></g>
<g transform="translate(220,330) scale(3.6666666666667)"><rect width="6" height="6"/></g>
<g transform="translate(264,330) scale(3.6666666666667)"><rect width="6" height="6"/></g>
<g transform="translate(286,330) scale(3.6666666666667)"><rect width="6" height="6"/></g>
<g transform="translate(352,330) scale(3.6666666666667)"><rect width="6" height="6"/></g>
<g transform="translate(374,330) scale(3.6666666666667)"><rect width="6" height="6"/></g>
<g transform="translate(418,330) scale(3.6666666666667)"><rect width="6" height="6"/></g>
<g transform="translate(462,330) scale(3.6666666666667)"><rect width="6" height="6"/></g>
<g transform="translate(528,330) scale(3.6666666666667)"><rect width="6" height="6"/></g>
<g transform="translate(572,330) scale(3.6666666666667)"><rect width="6" height="6"/></g>
<g transform="translate(616,330) scale(3.6666666666667)"><rect width="6" height="6"/></g>
<g transform="translate(638,330) scale(3.6666666666667)"><rect width="6" height="6"/></g>
<g transform="translate(660,330) scale(3.6666666666667)"><rect width="6" height="6"/></g>
<g transform="translate(682,330) scale(3.6666666666667)"><rect width="6" height="6"/></g>
<g transform="translate(704,330) scale(3.6666666666667)"><rect width="6" height="6"/></g>
<g transform="translate(726,330) scale(3.6666666666667)"><rect width="6" height="6"/></g>
<g transform="translate(748,330) scale(3.6666666666667)"><rect width="6" height="6"/></g>
<g transform="translate(792,330) scale(3.6666666666667)"><rect width="6" height="6"/></g>
<g transform="translate(836,330) scale(3.6666666666667)"><rect width="6" height="6"/></g>
<g transform="translate(858,330) scale(3.6666666666667)"><rect width="6" height="6"/></g>
<g transform="translate(902,330) scale(3.6666666666667)"><rect width="6" height="6"/></g>
<g transform="translate(924,330) scale(3.6666666666667)"><rect width="6" height="6"/></g>
<g transform="translate(66,352) scale(3.6666666666667)"><rect width="6" height="6"/></g>
<g transform="translate(88,352) scale(3.6666666666667)"><rect width="6" height="6"/></g>
<g transform="translate(110,352) scale(3.6666666666667)"><rect width="6" height="6"/></g>
<g transform="translate(176,352) scale(3.6666666666667)"><rect width="6" height="6"/></g>
<g transform="translate(264,352) scale(3.6666666666667)"><rect width="6" height="6"/></g>
<g transform="translate(286,352) scale(3.6666666666667)"><rect width="6" height="6"/></g>
<g transform="translate(330,352) scale(3.6666666666667)"><rect width="6" height="6"/></g>
<g transform="translate(440,352) scale(3.6666666666667)"><rect width="6" height="6"/></g>
<g transform="translate(572,352) scale(3.6666666666667)"><rect width="6" height="6"/></g>
<g transform="translate(594,352) scale(3.6666666666667)"><rect width="6" height="6"/></g>
<g transform="translate(682,352) scale(3.6666666666667)"><rect width="6" height="6"/></g>
<g transform="translate(770,352) scale(3.6666666666667)"><rect width="6" height="6"/></g>
<g transform="translate(858,352) scale(3.6666666666667)"><rect width="6" height="6"/></g>
<g transform="translate(66,374) scale(3.6666666666667)"><rect width="6" height="6"/></g>
<g transform="translate(198,374) scale(3.6666666666667)"><rect width="6" height="6"/></g>
<g transform="translate(242,374) scale(3.6666666666667)"><rect width="6" height="6"/></g>
<g transform="translate(286,374) scale(3.6666666666667)"><rect width="6" height="6"/></g>
<g transform="translate(308,374) scale(3.6666666666667)"><rect width="6" height="6"/></g>
<g transform="translate(330,374) scale(3.6666666666667)"><rect width="6" height="6"/></g>
<g transform="translate(374,374) scale(3.6666666666667)"><rect width="6" height="6"/></g>
<g transform="translate(396,374) scale(3.6666666666667)"><rect width="6" height="6"/></g>
<g transform="translate(418,374) scale(3.6666666666667)"><rect width="6" height="6"/></g>
<g transform="translate(462,374) scale(3.6666666666667)"><rect width="6" height="6"/></g>
<g transform="translate(506,374) scale(3.6666666666667)"><rect width="6" height="6"/></g>
<g transform="translate(528,374) scale(3.6666666666667)"><rect width="6" height="6"/></g>
<g transform="translate(660,374) scale(3.6666666666667)"><rect width="6" height="6"/></g>
<g transform="translate(704,374) scale(3.6666666666667)"><rect width="6" height="6"/></g>
<g transform="translate(726,374) scale(3.6666666666667)"><rect width="6" height="6"/></g>
<g transform="translate(792,374) scale(3.6666666666667)"><rect width="6" height="6"/></g>
<g transform="translate(814,374) scale(3.6666666666667)"><rect width="6" height="6"/></g>
<g transform="translate(858,374) scale(3.6666666666667)"><rect width="6" height="6"/></g>
<g transform="translate(902,374) scale(3.6666666666667)"><rect width="6" height="6"/></g>
<g transform="translate(66,396) scale(3.6666666666667)"><rect width="6" height="6"/></g>
<g transform="translate(132,396) scale(3.6666666666667)"><rect width="6" height="6"/></g>
<g transform="translate(176,396) scale(3.6666666666667)"><rect width="6" height="6"/></g>
<g transform="translate(220,396) scale(3.6666666666667)"><rect width="6" height="6"/></g>
<g transform="translate(264,396) scale(3.6666666666667)"><rect width="6" height="6"/></g>
<g transform="translate(286,396) scale(3.6666666666667)"><rect width="6" height="6"/></g>
<g transform="translate(308,396) scale(3.6666666666667)"><rect width="6" height="6"/></g>
<g transform="translate(330,396) scale(3.6666666666667)"><rect width="6" height="6"/></g>
<g transform="translate(352,396) scale(3.6666666666667)"><rect width="6" height="6"/></g>
<g transform="translate(396,396) scale(3.6666666666667)"><rect width="6" height="6"/></g>
<g transform="translate(462,396) scale(3.6666666666667)"><rect width="6" height="6"/></g>
<g transform="translate(484,396) scale(3.6666666666667)"><rect width="6" height="6"/></g>
<g transform="translate(572,396) scale(3.6666666666667)"><rect width="6" height="6"/></g>
<g transform="translate(616,396) scale(3.6666666666667)"><rect width="6" height="6"/></g>
<g transform="translate(682,396) scale(3.6666666666667)"><rect width="6" height="6"/></g>
<g transform="translate(770,396) scale(3.6666666666667)"><rect width="6" height="6"/></g>
<g transform="translate(814,396) scale(3.6666666666667)"><rect width="6" height="6"/></g>
<g transform="translate(880,396) scale(3.6666666666667)"><rect width="6" height="6"/></g>
<g transform="translate(924,396) scale(3.6666666666667)"><rect width="6" height="6"/></g>
<g transform="translate(66,418) scale(3.6666666666667)"><rect width="6" height="6"/></g>
<g transform="translate(110,418) scale(3.6666666666667)"><rect width="6" height="6"/></g>
<g transform="translate(132,418) scale(3.6666666666667)"><rect width="6" height="6"/></g>
<g transform="translate(154,418) scale(3.6666666666667)"><rect width="6" height="6"/></g>
<g transform="translate(220,418) scale(3.6666666666667)"><rect width="6" height="6"/></g>
<g transform="translate(242,418) scale(3.6666666666667)"><rect width="6" height="6"/></g>
<g transform="translate(264,418) scale(3.6666666666667)"><rect width="6" height="6"/></g>
<g transform="translate(330,418) scale(3.6666666666667)"><rect width="6" height="6"/></g>
<g transform="translate(374,418) scale(3.6666666666667)"><rect width="6" height="6"/></g>
<g transform="translate(418,418) scale(3.6666666666667)"><rect width="6" height="6"/></g>
<g transform="translate(484,418) scale(3.6666666666667)"><rect width="6" height="6"/></g>
<g transform="translate(528,418) scale(3.6666666666667)"><rect width="6" height="6"/></g>
<g transform="translate(550,418) scale(3.6666666666667)"><rect width="6" height="6"/></g>
<g transform="translate(572,418) scale(3.6666666666667)"><rect width="6" height="6"/></g>
<g transform="translate(594,418) scale(3.6666666666667)"><rect width="6" height="6"/></g>
<g transform="translate(660,418) scale(3.6666666666667)"><rect width="6" height="6"/></g>
<g transform="translate(682,418) scale(3.6666666666667)"><rect width="6" height="6"/></g>
<g transform="translate(726,418) scale(3.6666666666667)"><rect width="6" height="6"/></g>
<g transform="translate(748,418) scale(3.6666666666667)"><rect width="6" height="6"/></g>
<g transform="translate(792,418) scale(3.6666666666667)"><rect width="6" height="6"/></g>
<g transform="translate(814,418) scale(3.6666666666667)"><rect width="6" height="6"/></g>
<g transform="translate(836,418) scale(3.6666666666667)"><rect width="6" height="6"/></g>
<g transform="translate(858,418) scale(3.6666666666667)"><rect width="6" height="6"/></g>
<g transform="translate(880,418) scale(3.6666666666667)"><rect width="6" height="6"/></g>
<g transform="translate(902,418) scale(3.6666666666667)"><rect width="6" height="6"/></g>
<g transform="translate(924,418) scale(3.6666666666667)"><rect width="6" height="6"/></g>
<g transform="translate(44,440) scale(3.6666666666667)"><rect width="6" height="6"/></g>
<g transform="translate(154,440) scale(3.6666666666667)"><rect width="6" height="6"/></g>
<g transform="translate(176,440) scale(3.6666666666667)"><rect width="6" height="6"/></g>
<g transform="translate(198,440) scale(3.6666666666667)"><rect width="6" height="6"/></g>
<g transform="translate(242,440) scale(3.6666666666667)"><rect width="6" height="6"/></g>
<g transform="translate(308,440) scale(3.6666666666667)"><rect width="6" height="6"/></g>
<g transform="translate(352,440) scale(3.6666666666667)"><rect width="6" height="6"/></g>
<g transform="translate(374,440) scale(3.6666666666667)"><rect width="6" height="6"/></g>
<g transform="translate(440,440) scale(3.6666666666667)"><rect width="6" height="6"/></g>
<g transform="translate(462,440) scale(3.6666666666667)"><rect width="6" height="6"/></g>
<g transform="translate(550,440) scale(3.6666666666667)"><rect width="6" height="6"/></g>
<g transform="translate(594,440) scale(3.6666666666667)"><rect width="6" height="6"/></g>
<g transform="translate(638,440) scale(3.6666666666667)"><rect width="6" height="6"/></g>
<g transform="translate(682,440) scale(3.6666666666667)"><rect width="6" height="6"/></g>
<g transform="translate(748,440) scale(3.6666666666667)"><rect width="6" height="6"/></g>
<g transform="translate(792,440) scale(3.6666666666667)"><rect width="6" height="6"/></g>
<g transform="translate(836,440) scale(3.6666666666667)"><rect width="6" height="6"/></g>
<g transform="translate(44,462) scale(3.6666666666667)"><rect width="6" height="6"/></g>
<g transform="translate(88,462) scale(3.6666666666667)"><rect width="6" height="6"/></g>
<g transform="translate(110,462) scale(3.6666666666667)"><rect width="6" height="6"/></g>
<g transform="translate(154,462) scale(3.6666666666667)"><rect width="6" height="6"/></g>
<g transform="translate(198,462) scale(3.6666666666667)"><rect width="6" height="6"/></g>
<g transform="translate(220,462) scale(3.6666666666667)"><rect width="6" height="6"/></g>
<g transform="translate(242,462) scale(3.6666666666667)"><rect width="6" height="6"/></g>
<g transform="translate(264,462) scale(3.6666666666667)"><rect width="6" height="6"/></g>
<g transform="translate(286,462) scale(3.6666666666667)"><rect width="6" height="6"/></g>
<g transform="translate(330,462) scale(3.6666666666667)"><rect width="6" height="6"/></g>
<g transform="translate(352,462) scale(3.6666666666667)"><rect width="6" height="6"/></g>
<g transform="translate(396,462) scale(3.6666666666667)"><rect width="6" height="6"/></g>
<g transform="translate(440,462) scale(3.6666666666667)"><rect width="6" height="6"/></g>
<g transform="translate(572,462) scale(3.6666666666667)"><rect width="6" height="6"/></g>
<g transform="translate(616,462) scale(3.6666666666667)"><rect width="6" height="6"/></g>
<g transform="translate(660,462) scale(3.6666666666667)"><rect width="6" height="6"/></g>
<g transform="translate(726,462) scale(3.6666666666667)"><rect width="6" height="6"/></g>
<g transform="translate(770,462) scale(3.6666666666667)"><rect width="6" height="6"/></g>
<g transform="translate(792,462) scale(3.6666666666667)"><rect width="6" height="6"/></g>
<g transform="translate(836,462) scale(3.6666666666667)"><rect width="6" height="6"/></g>
<g transform="translate(858,462) scale(3.6666666666667)"><rect width="6" height="6"/></g>
<g transform="translate(924,462) scale(3.6666666666667)"><rect width="6" height="6"/></g>
<g transform="translate(66,484) scale(3.6666666666667)"><rect width="6" height="6"/></g>
<g transform="translate(110,484) scale(3.6666666666667)"><rect width="6" height="6"/></g>
<g transform="translate(132,484) scale(3.6666666666667)"><rect width="6" height="6"/></g>
<g transform="translate(154,484) scale(3.6666666666667)"><rect width="6" height="6"/></g>
<g transform="translate(176,484) scale(3.6666666666667)"><rect width="6" height="6"/></g>
<g transform="translate(198,484) scale(3.6666666666667)"><rect width="6" height="6"/></g>
<g transform="translate(220,484) scale(3.6666666666667)"><rect width="6" height="6"/></g>
<g transform="translate(242,484) scale(3.6666666666667)"><rect width="6" height="6"/></g>
<g transform="translate(506,484) scale(3.6666666666667)"><rect width="6" height="6"/></g>
<g transform="translate(550,484) scale(3.6666666666667)"><rect width="6" height="6"/></g>
<g transform="translate(572,484) scale(3.6666666666667)"><rect width="6" height="6"/></g>
<g transform="translate(594,484) scale(3.6666666666667)"><rect width="6" height="6"/></g>
<g transform="translate(616,484) scale(3.6666666666667)"><rect width="6" height="6"/></g>
<g transform="translate(682,484) scale(3.6666666666667)"><rect width="6" height="6"/></g>
<g transform="translate(880,484) scale(3.6666666666667)"><rect width="6" height="6"/></g>
<g transform="translate(902,484) scale(3.6666666666667)"><rect width="6" height="6"/></g>
<g transform="translate(924,484) scale(3.6666666666667)"><rect width="6" height="6"/></g>
<g transform="translate(44,506) scale(3.6666666666667)"><rect width="6" height="6"/></g>
<g transform="translate(66,506) scale(3.6666666666667)"><rect width="6" height="6"/></g>
<g transform="translate(88,506) scale(3.6666666666667)"><rect width="6" height="6"/></g>
<g transform="translate(110,506) scale(3.6666666666667)"><rect width="6" height="6"/></g>
<g transform="translate(132,506) scale(3.6666666666667)"><rect width="6" height="6"/></g>
<g transform="translate(154,506) scale(3.6666666666667)"><rect width="6" height="6"/></g>
<g transform="translate(198,506) scale(3.6666666666667)"><rect width="6" height="6"/></g>
<g transform="translate(286,506) scale(3.6666666666667)"><rect width="6" height="6"/></g>
<g transform="translate(330,506) scale(3.6666666666667)"><rect width="6" height="6"/></g>
<g transform="translate(352,506) scale(3.6666666666667)"><rect width="6" height="6"/></g>
<g transform="translate(374,506) scale(3.6666666666667)"><rect width="6" height="6"/></g>
<g transform="translate(462,506) scale(3.6666666666667)"><rect width="6" height="6"/></g>
<g transform="translate(550,506) scale(3.6666666666667)"><rect width="6" height="6"/></g>
<g transform="translate(572,506) scale(3.6666666666667)"><rect width="6" height="6"/></g>
<g transform="translate(594,506) scale(3.6666666666667)"><rect width="6" height="6"/></g>
<g transform="translate(660,506) scale(3.6666666666667)"><rect width="6" height="6"/></g>
<g transform="translate(726,506) scale(3.6666666666667)"><rect width="6" height="6"/></g>
<g transform="translate(748,506) scale(3.6666666666667)"><rect width="6" height="6"/></g>
<g transform="translate(770,506) scale(3.6666666666667)"><rect width="6" height="6"/></g>
<g transform="translate(792,506) scale(3.6666666666667)"><rect width="6" height="6"/></g>
<g transform="translate(814,506) scale(3.6666666666667)"><rect width="6" height="6"/></g>
<g transform="translate(836,506) scale(3.6666666666667)"><rect width="6" height="6"/></g>
<g transform="translate(880,506) scale(3.6666666666667)"><rect width="6" height="6"/></g>
<g transform="translate(902,506) scale(3.6666666666667)"><rect width="6" height="6"/></g>
<g transform="translate(924,506) scale(3.6666666666667)"><rect width="6" height="6"/></g>
<g transform="translate(44,528) scale(3.6666666666667)"><rect width="6" height="6"/></g>
<g transform="translate(66,528) scale(3.6666666666667)"><rect width="6" height="6"/></g>
<g transform="translate(88,528) scale(3.6666666666667)"><rect width="6" height="6"/></g>
<g transform="translate(110,528) scale(3.6666666666667)"><rect width="6" height="6"/></g>
<g transform="translate(154,528) scale(3.6666666666667)"><rect width="6" height="6"/></g>
<g transform="translate(176,528) scale(3.6666666666667)"><rect width="6" height="6"/></g>
<g transform="translate(198,528) scale(3.6666666666667)"><rect width="6" height="6"/></g>
<g transform="translate(220,528) scale(3.6666666666667)"><rect width="6" height="6"/></g>
<g transform="translate(242,528) scale(3.6666666666667)"><rect width="6" height="6"/></g>
<g transform="translate(264,528) scale(3.6666666666667)"><rect width="6" height="6"/></g>
<g transform="translate(286,528) scale(3.6666666666667)"><rect width="6" height="6"/></g>
<g transform="translate(330,528) scale(3.6666666666667)"><rect width="6" height="6"/></g>
<g transform="translate(352,528) scale(3.6666666666667)"><rect width="6" height="6"/></g>
<g transform="translate(396,528) scale(3.6666666666667)"><rect width="6" height="6"/></g>
<g transform="translate(440,528) scale(3.6666666666667)"><rect width="6" height="6"/></g>
<g transform="translate(462,528) scale(3.6666666666667)"><rect width="6" height="6"/></g>
<g transform="translate(616,528) scale(3.6666666666667)"><rect width="6" height="6"/></g>
<g transform="translate(638,528) scale(3.6666666666667)"><rect width="6" height="6"/></g>
<g transform="translate(660,528) scale(3.6666666666667)"><rect width="6" height="6"/></g>
<g transform="translate(682,528) scale(3.6666666666667)"><rect width="6" height="6"/></g>
<g transform="translate(704,528) scale(3.6666666666667)"><rect width="6" height="6"/></g>
<g transform="translate(748,528) scale(3.6666666666667)"><rect width="6" height="6"/></g>
<g transform="translate(792,528) scale(3.6666666666667)"><rect width="6" height="6"/></g>
<g transform="translate(814,528) scale(3.6666666666667)"><rect width="6" height="6"/></g>
<g transform="translate(836,528) scale(3.6666666666667)"><rect width="6" height="6"/></g>
<g transform="translate(858,528) scale(3.6666666666667)"><rect width="6" height="6"/></g>
<g transform="translate(44,550) scale(3.6666666666667)"><rect width="6" height="6"/></g>
<g transform="translate(110,550) scale(3.6666666666667)"><rect width="6" height="6"/></g>
<g transform="translate(132,550) scale(3.6666666666667)"><rect width="6" height="6"/></g>
<g transform="translate(154,550) scale(3.6666666666667)"><rect width="6" height="6"/></g>
<g transform="translate(220,550) scale(3.6666666666667)"><rect width="6" height="6"/></g>
<g transform="translate(330,550) scale(3.6666666666667)"><rect width="6" height="6"/></g>
<g transform="translate(374,550) scale(3.6666666666667)"><rect width="6" height="6"/></g>
<g transform="translate(396,550) scale(3.6666666666667)"><rect width="6" height="6"/></g>
<g transform="translate(418,550) scale(3.6666666666667)"><rect width="6" height="6"/></g>
<g transform="translate(440,550) scale(3.6666666666667)"><rect width="6" height="6"/></g>
<g transform="translate(506,550) scale(3.6666666666667)"><rect width="6" height="6"/></g>
<g transform="translate(528,550) scale(3.6666666666667)"><rect width="6" height="6"/></g>
<g transform="translate(550,550) scale(3.6666666666667)"><rect width="6" height="6"/></g>
<g transform="translate(572,550) scale(3.6666666666667)"><rect width="6" height="6"/></g>
<g transform="translate(660,550) scale(3.6666666666667)"><rect width="6" height="6"/></g>
<g transform="translate(704,550) scale(3.6666666666667)"><rect width="6" height="6"/></g>
<g transform="translate(726,550) scale(3.6666666666667)"><rect width="6" height="6"/></g>
<g transform="translate(748,550) scale(3.6666666666667)"><rect width="6" height="6"/></g>
<g transform="translate(770,550) scale(3.6666666666667)"><rect width="6" height="6"/></g>
<g transform="translate(792,550) scale(3.6666666666667)"><rect width="6" height="6"/></g>
<g transform="translate(836,550) scale(3.6666666666667)"><rect width="6" height="6"/></g>
<g transform="translate(902,550) scale(3.6666666666667)"><rect width="6" height="6"/></g>
<g transform="translate(44,572) scale(3.6666666666667)"><rect width="6" height="6"/></g>
<g transform="translate(132,572) scale(3.6666666666667)"><rect width="6" height="6"/></g>
<g transform="translate(176,572) scale(3.6666666666667)"><rect width="6" height="6"/></g>
<g transform="translate(220,572) scale(3.6666666666667)"><rect width="6" height="6"/></g>
<g transform="translate(352,572) scale(3.6666666666667)"><rect width="6" height="6"/></g>
<g transform="translate(396,572) scale(3.6666666666667)"><rect width="6" height="6"/></g>
<g transform="translate(440,572) scale(3.6666666666667)"><rect width="6" height="6"/></g>
<g transform="translate(484,572) scale(3.6666666666667)"><rect width="6" height="6"/></g>
<g transform="translate(506,572) scale(3.6666666666667)"><rect width="6" height="6"/></g>
<g transform="translate(528,572) scale(3.6666666666667)"><rect width="6" height="6"/></g>
<g transform="translate(550,572) scale(3.6666666666667)"><rect width="6" height="6"/></g>
<g transform="translate(572,572) scale(3.6666666666667)"><rect width="6" height="6"/></g>
<g transform="translate(616,572) scale(3.6666666666667)"><rect width="6" height="6"/></g>
<g transform="translate(682,572) scale(3.6666666666667)"><rect width="6" height="6"/></g>
<g transform="translate(704,572) scale(3.6666666666667)"><rect width="6" height="6"/></g>
<g transform="translate(726,572) scale(3.6666666666667)"><rect width="6" height="6"/></g>
<g transform="translate(770,572) scale(3.6666666666667)"><rect width="6" height="6"/></g>
<g transform="translate(858,572) scale(3.6666666666667)"><rect width="6" height="6"/></g>
<g transform="translate(880,572) scale(3.6666666666667)"><rect width="6" height="6"/></g>
<g transform="translate(902,572) scale(3.6666666666667)"><rect width="6" height="6"/></g>
<g transform="translate(924,572) scale(3.6666666666667)"><rect width="6" height="6"/></g>
<g transform="translate(110,594) scale(3.6666666666667)"><rect width="6" height="6"/></g>
<g transform="translate(154,594) scale(3.6666666666667)"><rect width="6" height="6"/></g>
<g transform="translate(220,594) scale(3.6666666666667)"><rect width="6" height="6"/></g>
<g transform="translate(242,594) scale(3.6666666666667)"><rect width="6" height="6"/></g>
<g transform="translate(308,594) scale(3.6666666666667)"><rect width="6" height="6"/></g>
<g transform="translate(330,594) scale(3.6666666666667)"><rect width="6" height="6"/></g>
<g transform="translate(418,594) scale(3.6666666666667)"><rect width="6" height="6"/></g>
<g transform="translate(440,594) scale(3.6666666666667)"><rect width="6" height="6"/></g>
<g transform="translate(506,594) scale(3.6666666666667)"><rect width="6" height="6"/></g>
<g transform="translate(528,594) scale(3.6666666666667)"><rect width="6" height="6"/></g>
<g transform="translate(594,594) scale(3.6666666666667)"><rect width="6" height="6"/></g>
<g transform="translate(660,594) scale(3.6666666666667)"><rect width="6" height="6"/></g>
<g transform="translate(682,594) scale(3.6666666666667)"><rect width="6" height="6"/></g>
<g transform="translate(704,594) scale(3.6666666666667)"><rect width="6" height="6"/></g>
<g transform="translate(726,594) scale(3.6666666666667)"><rect width="6" height="6"/></g>
<g transform="translate(770,594) scale(3.6666666666667)"><rect width="6" height="6"/></g>
<g transform="translate(792,594) scale(3.6666666666667)"><rect width="6" height="6"/></g>
<g transform="translate(814,594) scale(3.6666666666667)"><rect width="6" height="6"/></g>
<g transform="translate(836,594) scale(3.6666666666667)"><rect width="6" height="6"/></g>
<g transform="translate(858,594) scale(3.6666666666667)"><rect width="6" height="6"/></g>
<g transform="translate(924,594) scale(3.6666666666667)"><rect width="6" height="6"/></g>
<g transform="translate(44,616) scale(3.6666666666667)"><rect width="6" height="6"/></g>
<g transform="translate(66,616) scale(3.6666666666667)"><rect width="6" height="6"/></g>
<g transform="translate(132,616) scale(3.6666666666667)"><rect width="6" height="6"/></g>
<g transform="translate(176,616) scale(3.6666666666667)"><rect width="6" height="6"/></g>
<g transform="translate(198,616) scale(3.6666666666667)"><rect width="6" height="6"/></g>
<g transform="translate(220,616) scale(3.6666666666667)"><rect width="6" height="6"/></g>
<g transform="translate(264,616) scale(3.6666666666667)"><rect width="6" height="6"/></g>
<g transform="translate(330,616) scale(3.6666666666667)"><rect width="6" height="6"/></g>
<g transform="translate(352,616) scale(3.6666666666667)"><rect width="6" height="6"/></g>
<g transform="translate(440,616) scale(3.6666666666667)"><rect width="6" height="6"/></g>
<g transform="translate(462,616) scale(3.6666666666667)"><rect width="6" height="6"/></g>
<g transform="translate(484,616) scale(3.6666666666667)"><rect width="6" height="6"/></g>
<g transform="translate(506,616) scale(3.6666666666667)"><rect width="6" height="6"/></g>
<g transform="translate(550,616) scale(3.6666666666667)"><rect width="6" height="6"/></g>
<g transform="translate(572,616) scale(3.6666666666667)"><rect width="6" height="6"/></g>
<g transform="translate(638,616) scale(3.6666666666667)"><rect width="6" height="6"/></g>
<g transform="translate(704,616) scale(3.6666666666667)"><rect width="6" height="6"/></g>
<g transform="translate(748,616) scale(3.6666666666667)"><rect width="6" height="6"/></g>
<g transform="translate(836,616) scale(3.6666666666667)"><rect width="6" height="6"/></g>
<g transform="translate(902,616) scale(3.6666666666667)"><rect width="6" height="6"/></g>
<g transform="translate(66,638) scale(3.6666666666667)"><rect width="6" height="6"/></g>
<g transform="translate(110,638) scale(3.6666666666667)"><rect width="6" height="6"/></g>
<g transform="translate(132,638) scale(3.6666666666667)"><rect width="6" height="6"/></g>
<g transform="translate(220,638) scale(3.6666666666667)"><rect width="6" height="6"/></g>
<g transform="translate(286,638) scale(3.6666666666667)"><rect width="6" height="6"/></g>
<g transform="translate(308,638) scale(3.6666666666667)"><rect width="6" height="6"/></g>
<g transform="translate(352,638) scale(3.6666666666667)"><rect width="6" height="6"/></g>
<g transform="translate(374,638) scale(3.6666666666667)"><rect width="6" height="6"/></g>
<g transform="translate(396,638) scale(3.6666666666667)"><rect width="6" height="6"/></g>
<g transform="translate(462,638) scale(3.6666666666667)"><rect width="6" height="6"/></g>
<g transform="translate(594,638) scale(3.6666666666667)"><rect width="6" height="6"/></g>
<g transform="translate(616,638) scale(3.6666666666667)"><rect width="6" height="6"/></g>
<g transform="translate(638,638) scale(3.6666666666667)"><rect width="6" height="6"/></g>
<g transform="translate(660,638) scale(3.6666666666667)"><rect width="6" height="6"/></g>
<g transform="translate(726,638) scale(3.6666666666667)"><rect width="6" height="6"/></g>
<g transform="translate(748,638) scale(3.6666666666667)"><rect width="6" height="6"/></g>
<g transform="translate(770,638) scale(3.6666666666667)"><rect width="6" height="6"/></g>
<g transform="translate(792,638) scale(3.6666666666667)"><rect width="6" height="6"/></g>
<g transform="translate(814,638) scale(3.6666666666667)"><rect width="6" height="6"/></g>
<g transform="translate(836,638) scale(3.6666666666667)"><rect width="6" height="6"/></g>
<g transform="translate(858,638) scale(3.6666666666667)"><rect width="6" height="6"/></g>
<g transform="translate(44,660) scale(3.6666666666667)"><rect width="6" height="6"/></g>
<g transform="translate(66,660) scale(3.6666666666667)"><rect width="6" height="6"/></g>
<g transform="translate(154,660) scale(3.6666666666667)"><rect width="6" height="6"/></g>
<g transform="translate(176,660) scale(3.6666666666667)"><rect width="6" height="6"/></g>
<g transform="translate(220,660) scale(3.6666666666667)"><rect width="6" height="6"/></g>
<g transform="translate(308,660) scale(3.6666666666667)"><rect width="6" height="6"/></g>
<g transform="translate(352,660) scale(3.6666666666667)"><rect width="6" height="6"/></g>
<g transform="translate(374,660) scale(3.6666666666667)"><rect width="6" height="6"/></g>
<g transform="translate(440,660) scale(3.6666666666667)"><rect width="6" height="6"/></g>
<g transform="translate(462,660) scale(3.6666666666667)"><rect width="6" height="6"/></g>
<g transform="translate(484,660) scale(3.6666666666667)"><rect width="6" height="6"/></g>
<g transform="translate(572,660) scale(3.6666666666667)"><rect width="6" height="6"/></g>
<g transform="translate(594,660) scale(3.6666666666667)"><rect width="6" height="6"/></g>
<g transform="translate(616,660) scale(3.6666666666667)"><rect width="6" height="6"/></g>
<g transform="translate(682,660) scale(3.6666666666667)"><rect width="6" height="6"/></g>
<g transform="translate(726,660) scale(3.6666666666667)"><rect width="6" height="6"/></g>
<g transform="translate(748,660) scale(3.6666666666667)"><rect width="6" height="6"/></g>
<g transform="translate(770,660) scale(3.6666666666667)"><rect width="6" height="6"/></g>
<g transform="translate(858,660) scale(3.6666666666667)"><rect width="6" height="6"/></g>
<g transform="translate(880,660) scale(3.6666666666667)"><rect width="6" height="6"/></g>
<g transform="translate(924,660) scale(3.6666666666667)"><rect width="6" height="6"/></g>
<g transform="translate(44,682) scale(3.6666666666667)"><rect width="6" height="6"/></g>
<g transform="translate(66,682) scale(3.6666666666667)"><rect width="6" height="6"/></g>
<g transform="translate(88,682) scale(3.6666666666667)"><rect width="6" height="6"/></g>
<g transform="translate(110,682) scale(3.6666666666667)"><rect width="6" height="6"/></g>
<g transform="translate(132,682) scale(3.6666666666667)"><rect width="6" height="6"/></g>
<g transform="translate(154,682) scale(3.6666666666667)"><rect width="6" height="6"/></g>
<g transform="translate(220,682) scale(3.6666666666667)"><rect width="6" height="6"/></g>
<g transform="translate(308,682) scale(3.6666666666667)"><rect width="6" height="6"/></g>
<g transform="translate(374,682) scale(3.6666666666667)"><rect width="6" height="6"/></g>
<g transform="translate(396,682) scale(3.6666666666667)"><rect width="6" height="6"/></g>
<g transform="translate(440,682) scale(3.6666666666667)"><rect width="6" height="6"/></g>
<g transform="translate(484,682) scale(3.6666666666667)"><rect width="6" height="6"/></g>
<g transform="translate(572,682) scale(3.6666666666667)"><rect width="6" height="6"/></g>
<g transform="translate(594,682) scale(3.6666666666667)"><rect width="6" height="6"/></g>
<g transform="translate(616,682) scale(3.6666666666667)"><rect width="6" height="6"/></g>
<g transform="translate(638,682) scale(3.6666666666667)"><rect width="6" height="6"/></g>
<g transform="translate(704,682) scale(3.6666666666667)"><rect width="6" height="6"/></g>
<g transform="translate(726,682) scale(3.6666666666667)"><rect width="6" height="6"/></g>
<g transform="translate(792,682) scale(3.6666666666667)"><rect width="6" height="6"/></g>
<g transform="translate(814,682) scale(3.6666666666667)"><rect width="6" height="6"/></g>
<g transform="translate(836,682) scale(3.6666666666667)"><rect width="6" height="6"/></g>
<g transform="translate(858,682) scale(3.6666666666667)"><rect width="6" height="6"/></g>
<g transform="translate(902,682) scale(3.6666666666667)"><rect width="6" height="6"/></g>
<g transform="translate(924,682) scale(3.6666666666667)"><rect width="6" height="6"/></g>
<g transform="translate(44,704) scale(3.6666666666667)"><rect width="6" height="6"/></g>
<g transform="translate(132,704) scale(3.6666666666667)"><rect width="6" height="6"/></g>
<g transform="translate(154,704) scale(3.6666666666667)"><rect width="6" height="6"/></g>
<g transform="translate(176,704) scale(3.6666666666667)"><rect width="6" height="6"/></g>
<g transform="translate(198,704) scale(3.6666666666667)"><rect width="6" height="6"/></g>
<g transform="translate(220,704) scale(3.6666666666667)"><rect width="6" height="6"/></g>
<g transform="translate(242,704) scale(3.6666666666667)"><rect width="6" height="6"/></g>
<g transform="translate(264,704) scale(3.6666666666667)"><rect width="6" height="6"/></g>
<g transform="translate(308,704) scale(3.6666666666667)"><rect width="6" height="6"/></g>
<g transform="translate(374,704) scale(3.6666666666667)"><rect width="6" height="6"/></g>
<g transform="translate(396,704) scale(3.6666666666667)"><rect width="6" height="6"/></g>
<g transform="translate(572,704) scale(3.6666666666667)"><rect width="6" height="6"/></g>
<g transform="translate(616,704) scale(3.6666666666667)"><rect width="6" height="6"/></g>
<g transform="translate(638,704) scale(3.6666666666667)"><rect width="6" height="6"/></g>
<g transform="translate(770,704) scale(3.6666666666667)"><rect width="6" height="6"/></g>
<g transform="translate(792,704) scale(3.6666666666667)"><rect width="6" height="6"/></g>
<g transform="translate(814,704) scale(3.6666666666667)"><rect width="6" height="6"/></g>
<g transform="translate(836,704) scale(3.6666666666667)"><rect width="6" height="6"/></g>
<g transform="translate(44,726) scale(3.6666666666667)"><rect width="6" height="6"/></g>
<g transform="translate(88,726) scale(3.6666666666667)"><rect width="6" height="6"/></g>
<g transform="translate(198,726) scale(3.6666666666667)"><rect width="6" height="6"/></g>
<g transform="translate(242,726) scale(3.6666666666667)"><rect width="6" height="6"/></g>
<g transform="translate(286,726) scale(3.6666666666667)"><rect width="6" height="6"/></g>
<g transform="translate(374,726) scale(3.6666666666667)"><rect width="6" height="6"/></g>
<g transform="translate(396,726) scale(3.6666666666667)"><rect width="6" height="6"/></g>
<g transform="translate(418,726) scale(3.6666666666667)"><rect width="6" height="6"/></g>
<g transform="translate(440,726) scale(3.6666666666667)"><rect width="6" height="6"/></g>
<g transform="translate(484,726) scale(3.6666666666667)"><rect width="6" height="6"/></g>
<g transform="translate(506,726) scale(3.6666666666667)"><rect width="6" height="6"/></g>
<g transform="translate(528,726) scale(3.6666666666667)"><rect width="6" height="6"/></g>
<g transform="translate(572,726) scale(3.6666666666667)"><rect width="6" height="6"/></g>
<g transform="translate(594,726) scale(3.6666666666667)"><rect width="6" height="6"/></g>
<g transform="translate(638,726) scale(3.6666666666667)"><rect width="6" height="6"/></g>
<g transform="translate(660,726) scale(3.6666666666667)"><rect width="6" height="6"/></g>
<g transform="translate(704,726) scale(3.6666666666667)"><rect width="6" height="6"/></g>
<g transform="translate(726,726) scale(3.6666666666667)"><rect width="6" height="6"/></g>
<g transform="translate(770,726) scale(3.6666666666667)"><rect width="6" height="6"/></g>
<g transform="translate(792,726) scale(3.6666666666667)"><rect width="6" height="6"/></g>
<g transform="translate(858,726) scale(3.6666666666667)"><rect width="6" height="6"/></g>
<g transform="translate(44,748) scale(3.6666666666667)"><rect width="6" height="6"/></g>
<g transform="translate(154,748) scale(3.6666666666667)"><rect width="6" height="6"/></g>
<g transform="translate(176,748) scale(3.6666666666667)"><rect width="6" height="6"/></g>
<g transform="translate(220,748) scale(3.6666666666667)"><rect width="6" height="6"/></g>
<g transform="translate(352,748) scale(3.6666666666667)"><rect width="6" height="6"/></g>
<g transform="translate(418,748) scale(3.6666666666667)"><rect width="6" height="6"/></g>
<g transform="translate(440,748) scale(3.6666666666667)"><rect width="6" height="6"/></g>
<g transform="translate(462,748) scale(3.6666666666667)"><rect width="6" height="6"/></g>
<g transform="translate(506,748) scale(3.6666666666667)"><rect width="6" height="6"/></g>
<g transform="translate(550,748) scale(3.6666666666667)"><rect width="6" height="6"/></g>
<g transform="translate(572,748) scale(3.6666666666667)"><rect width="6" height="6"/></g>
<g transform="translate(594,748) scale(3.6666666666667)"><rect width="6" height="6"/></g>
<g transform="translate(638,748) scale(3.6666666666667)"><rect width="6" height="6"/></g>
<g transform="translate(682,748) scale(3.6666666666667)"><rect width="6" height="6"/></g>
<g transform="translate(748,748) scale(3.6666666666667)"><rect width="6" height="6"/></g>
<g transform="translate(770,748) scale(3.6666666666667)"><rect width="6" height="6"/></g>
<g transform="translate(792,748) scale(3.6666666666667)"><rect width="6" height="6"/></g>
<g transform="translate(814,748) scale(3.6666666666667)"><rect width="6" height="6"/></g>
<g transform="translate(836,748) scale(3.6666666666667)"><rect width="6" height="6"/></g>
<g transform="translate(880,748) scale(3.6666666666667)"><rect width="6" height="6"/></g>
<g transform="translate(220,770) scale(3.6666666666667)"><rect width="6" height="6"/></g>
<g transform="translate(242,770) scale(3.6666666666667)"><rect width="6" height="6"/></g>
<g transform="translate(308,770) scale(3.6666666666667)"><rect width="6" height="6"/></g>
<g transform="translate(352,770) scale(3.6666666666667)"><rect width="6" height="6"/></g>
<g transform="translate(462,770) scale(3.6666666666667)"><rect width="6" height="6"/></g>
<g transform="translate(528,770) scale(3.6666666666667)"><rect width="6" height="6"/></g>
<g transform="translate(550,770) scale(3.6666666666667)"><rect width="6" height="6"/></g>
<g transform="translate(572,770) scale(3.6666666666667)"><rect width="6" height="6"/></g>
<g transform="translate(594,770) scale(3.6666666666667)"><rect width="6" height="6"/></g>
<g transform="translate(660,770) scale(3.6666666666667)"><rect width="6" height="6"/></g>
<g transform="translate(704,770) scale(3.6666666666667)"><rect width="6" height="6"/></g>
<g transform="translate(726,770) scale(3.6666666666667)"><rect width="6" height="6"/></g>
<g transform="translate(748,770) scale(3.6666666666667)"><rect width="6" height="6"/></g>
<g transform="translate(836,770) scale(3.6666666666667)"><rect width="6" height="6"/></g>
<g transform="translate(880,770) scale(3.6666666666667)"><rect width="6" height="6"/></g>
<g transform="translate(902,770) scale(3.6666666666667)"><rect width="6" height="6"/></g>
<g transform="translate(924,770) scale(3.6666666666667)"><rect width="6" height="6"/></g>
<g transform="translate(242,792) scale(3.6666666666667)"><rect width="6" height="6"/></g>
<g transform="translate(308,792) scale(3.6666666666667)"><rect width="6" height="6"/></g>
<g transform="translate(352,792) scale(3.6666666666667)"><rect width="6" height="6"/></g>
<g transform="translate(374,792) scale(3.6666666666667)"><rect width="6" height="6"/></g>
<g transform="translate(528,792) scale(3.6666666666667)"><rect width="6" height="6"/></g>
<g transform="translate(594,792) scale(3.6666666666667)"><rect width="6" height="6"/></g>
<g transform="translate(616,792) scale(3.6666666666667)"><rect width="6" height="6"/></g>
<g transform="translate(638,792) scale(3.6666666666667)"><rect width="6" height="6"/></g>
<g transform="translate(660,792) scale(3.6666666666667)"><rect width="6" height="6"/></g>
<g transform="translate(704,792) scale(3.6666666666667)"><rect width="6" height="6"/></g>
<g transform="translate(726,792) scale(3.6666666666667)"><rect width="6" height="6"/></g>
<g transform="translate(748,792) scale(3.6666666666667)"><rect width="6" height="6"/></g>
<g transform="translate(792,792) scale(3.6666666666667)"><rect width="6" height="6"/></g>
<g transform="translate(836,792) scale(3.6666666666667)"><rect width="6" height="6"/></g>
<g transform="translate(858,792) scale(3.6666666666667)"><rect width="6" height="6"/></g>
<g transform="translate(308,814) scale(3.6666666666667)"><rect width="6" height="6"/></g>
<g transform="translate(374,814) scale(3.6666666666667)"><rect width="6" height="6"/></g>
<g transform="translate(440,814) scale(3.6666666666667)"><rect width="6" height="6"/></g>
<g transform="translate(462,814) scale(3.6666666666667)"><rect width="6" height="6"/></g>
<g transform="translate(484,814) scale(3.6666666666667)"><rect width="6" height="6"/></g>
<g transform="translate(506,814) scale(3.6666666666667)"><rect width="6" height="6"/></g>
<g transform="translate(528,814) scale(3.6666666666667)"><rect width="6" height="6"/></g>
<g transform="translate(594,814) scale(3.6666666666667)"><rect width="6" height="6"/></g>
<g transform="translate(638,814) scale(3.6666666666667)"><rect width="6" height="6"/></g>
<g transform="translate(704,814) scale(3.6666666666667)"><rect width="6" height="6"/></g>
<g transform="translate(726,814) scale(3.6666666666667)"><rect width="6" height="6"/></g>
<g transform="translate(748,814) scale(3.6666666666667)"><rect width="6" height="6"/></g>
<g transform="translate(836,814) scale(3.6666666666667)"><rect width="6" height="6"/></g>
<g transform="translate(858,814) scale(3.6666666666667)"><rect width="6" height="6"/></g>
<g transform="translate(902,814) scale(3.6666666666667)"><rect width="6" height="6"/></g>
<g transform="translate(924,814) scale(3.6666666666667)"><rect width="6" height="6"/></g>
<g transform="translate(220,836) scale(3.6666666666667)"><rect width="6" height="6"/></g>
<g transform="translate(242,836) scale(3.6666666666667)"><rect width="6" height="6"/></g>
<g transform="translate(264,836) scale(3.6666666666667)"><rect width="6" height="6"/></g>
<g transform="translate(330,836) scale(3.6666666666667)"><rect width="6" height="6"/></g>
<g transform="translate(352,836) scale(3.6666666666667)"><rect width="6" height="6"/></g>
<g transform="translate(374,836) scale(3.6666666666667)"><rect width="6" height="6"/></g>
<g transform="translate(440,836) scale(3.6666666666667)"><rect width="6" height="6"/></g>
<g transform="translate(462,836) scale(3.6666666666667)"><rect width="6" height="6"/></g>
<g transform="translate(506,836) scale(3.6666666666667)"><rect width="6" height="6"/></g>
<g transform="translate(572,836) scale(3.6666666666667)"><rect width="6" height="6"/></g>
<g transform="translate(638,836) scale(3.6666666666667)"><rect width="6" height="6"/></g>
<g transform="translate(682,836) scale(3.6666666666667)"><rect width="6" height="6"/></g>
<g transform="translate(748,836) scale(3.6666666666667)"><rect width="6" height="6"/></g>
<g transform="translate(770,836) scale(3.6666666666667)"><rect width="6" height="6"/></g>
<g transform="translate(792,836) scale(3.6666666666667)"><rect width="6" height="6"/></g>
<g transform="translate(814,836) scale(3.6666666666667)"><rect width="6" height="6"/></g>
<g transform="translate(836,836) scale(3.6666666666667)"><rect width="6" height="6"/></g>
<g transform="translate(858,836) scale(3.6666666666667)"><rect width="6" height="6"/></g>
<g transform="translate(880,836) scale(3.6666666666667)"><rect width="6" height="6"/></g>
<g transform="translate(924,836) scale(3.6666666666667)"><rect width="6" height="6"/></g>
<g transform="translate(220,858) scale(3.6666666666667)"><rect width="6" height="6"/></g>
<g transform="translate(242,858) scale(3.6666666666667)"><rect width="6" height="6"/></g>
<g transform="translate(264,858) scale(3.6666666666667)"><rect width="6" height="6"/></g>
<g transform="translate(286,858) scale(3.6666666666667)"><rect width="6" height="6"/></g>
<g transform="translate(308,858) scale(3.6666666666667)"><rect width="6" height="6"/></g>
<g transform="translate(330,858) scale(3.6666666666667)"><rect width="6" height="6"/></g>
<g transform="translate(396,858) scale(3.6666666666667)"><rect width="6" height="6"/></g>
<g transform="translate(418,858) scale(3.6666666666667)"><rect width="6" height="6"/></g>
<g transform="translate(528,858) scale(3.6666666666667)"><rect width="6" height="6"/></g>
<g transform="translate(550,858) scale(3.6666666666667)"><rect width="6" height="6"/></g>
<g transform="translate(572,858) scale(3.6666666666667)"><rect width="6" height="6"/></g>
<g transform="translate(682,858) scale(3.6666666666667)"><rect width="6" height="6"/></g>
<g transform="translate(726,858) scale(3.6666666666667)"><rect width="6" height="6"/></g>
<g transform="translate(770,858) scale(3.6666666666667)"><rect width="6" height="6"/></g>
<g transform="translate(814,858) scale(3.6666666666667)"><rect width="6" height="6"/></g>
<g transform="translate(858,858) scale(3.6666666666667)"><rect width="6" height="6"/></g>
<g transform="translate(924,858) scale(3.6666666666667)"><rect width="6" height="6"/></g>
<g transform="translate(220,880) scale(3.6666666666667)"><rect width="6" height="6"/></g>
<g transform="translate(242,880) scale(3.6666666666667)"><rect width="6" height="6"/></g>
<g transform="translate(286,880) scale(3.6666666666667)"><rect width="6" height="6"/></g>
<g transform="translate(308,880) scale(3.6666666666667)"><rect width="6" height="6"/></g>
<g transform="translate(330,880) scale(3.6666666666667)"><rect width="6" height="6"/></g>
<g transform="translate(374,880) scale(3.6666666666667)"><rect width="6" height="6"/></g>
<g transform="translate(396,880) scale(3.6666666666667)"><rect width="6" height="6"/></g>
<g transform="translate(418,880) scale(3.6666666666667)"><rect width="6" height="6"/></g>
<g transform="translate(572,880) scale(3.6666666666667)"><rect width="6" height="6"/></g>
<g transform="translate(594,880) scale(3.6666666666667)"><rect width="6" height="6"/></g>
<g transform="translate(638,880) scale(3.6666666666667)"><rect width="6" height="6"/></g>
<g transform="translate(682,880) scale(3.6666666666667)"><rect width="6" height="6"/></g>
<g transform="translate(726,880) scale(3.6666666666667)"><rect width="6" height="6"/></g>
<g transform="translate(748,880) scale(3.6666666666667)"><rect width="6" height="6"/></g>
<g transform="translate(770,880) scale(3.6666666666667)"><rect width="6" height="6"/></g>
<g transform="translate(792,880) scale(3.6666666666667)"><rect width="6" height="6"/></g>
<g transform="translate(814,880) scale(3.6666666666667)"><rect width="6" height="6"/></g>
<g transform="translate(836,880) scale(3.6666666666667)"><rect width="6" height="6"/></g>
<g transform="translate(858,880) scale(3.6666666666667)"><rect width="6" height="6"/></g>
<g transform="translate(902,880) scale(3.6666666666667)"><rect width="6" height="6"/></g>
<g transform="translate(242,902) scale(3.6666666666667)"><rect width="6" height="6"/></g>
<g transform="translate(286,902) scale(3.6666666666667)"><rect width="6" height="6"/></g>
<g transform="translate(330,902) scale(3.6666666666667)"><rect width="6" height="6"/></g>
<g transform="translate(374,902) scale(3.6666666666667)"><rect width="6" height="6"/></g>
<g transform="translate(396,902) scale(3.6666666666667)"><rect width="6" height="6"/></g>
<g transform="translate(440,902) scale(3.6666666666667)"><rect width="6" height="6"/></g>
<g transform="translate(462,902) scale(3.6666666666667)"><rect width="6" height="6"/></g>
<g transform="translate(484,902) scale(3.6666666666667)"><rect width="6" height="6"/></g>
<g transform="translate(506,902) scale(3.6666666666667)"><rect width="6" height="6"/></g>
<g transform="translate(528,902) scale(3.6666666666667)"><rect width="6" height="6"/></g>
<g transform="translate(594,902) scale(3.6666666666667)"><rect width="6" height="6"/></g>
<g transform="translate(660,902) scale(3.6666666666667)"><rect width="6" height="6"/></g>
<g transform="translate(704,902) scale(3.6666666666667)"><rect width="6" height="6"/></g>
<g transform="translate(748,902) scale(3.6666666666667)"><rect width="6" height="6"/></g>
<g transform="translate(770,902) scale(3.6666666666667)"><rect width="6" height="6"/></g>
<g transform="translate(836,902) scale(3.6666666666667)"><rect width="6" height="6"/></g>
<g transform="translate(902,902) scale(3.6666666666667)"><rect width="6" height="6"/></g>
<g transform="translate(242,924) scale(3.6666666666667)"><rect width="6" height="6"/></g>
<g transform="translate(264,924) scale(3.6666666666667)"><rect width="6" height="6"/></g>
<g transform="translate(286,924) scale(3.6666666666667)"><rect width="6" height="6"/></g>
<g transform="translate(330,924) scale(3.6666666666667)"><rect width="6" height="6"/></g>
<g transform="translate(352,924) scale(3.6666666666667)"><rect width="6" height="6"/></g>
<g transform="translate(418,924) scale(3.6666666666667)"><rect width="6" height="6"/></g>
<g transform="translate(484,924) scale(3.6666666666667)"><rect width="6" height="6"/></g>
<g transform="translate(572,924) scale(3.6666666666667)"><rect width="6" height="6"/></g>
<g transform="translate(682,924) scale(3.6666666666667)"><rect width="6" height="6"/></g>
<g transform="translate(726,924) scale(3.6666666666667)"><rect width="6" height="6"/></g>
<g transform="translate(792,924) scale(3.6666666666667)"><rect width="6" height="6"/></g>
<g transform="translate(814,924) scale(3.6666666666667)"><rect width="6" height="6"/></g>
<g transform="translate(836,924) scale(3.6666666666667)"><rect width="6" height="6"/></g>
<g transform="translate(858,924) scale(3.6666666666667)"><rect width="6" height="6"/></g>
<g transform="translate(880,924) scale(3.6666666666667)"><rect width="6" height="6"/></g>
</g></mask></defs>
<rect width="990" height="990" fill="#ffffff" x="0" y="0" />
<rect x="0" y="0" width="990" height="990" mask="url(#qrmask)" fill="#000000" />
<g transform="translate(44,44)"  fill="#000000"><g transform="scale(11)"><path d="M0,0v14h14V0H0z M12,12H2V2h10V12z"/></g></g>
<g transform="translate(792,44)"  fill="#000000"><g transform="scale(11)"><path d="M0,0v14h14V0H0z M12,12H2V2h10V12z"/></g></g>
<g transform="translate(44,792)"  fill="#000000"><g transform="scale(11)"><path d="M0,0v14h14V0H0z M12,12H2V2h10V12z"/></g></g>
<g transform="translate(88,88)"  fill="#000000"><g transform="scale(11)"><rect width="6" height="6"/></g></g>
<g transform="translate(836,88)"  fill="#000000"><g transform="scale(11)"><rect width="6" height="6"/></g></g>
<g transform="translate(88,836)"  fill="#000000"><g transform="scale(11)"><rect width="6" height="6"/></g></g>
</svg>